<svg width="65" height="68" viewBox="0 0 65 68" fill="none" xmlns="http://www.w3.org/2000/svg">
<rect width="65" height="68" rx="10" fill="white"/>
<path d="M50.8978 24.1753C50.2922 23.9623 49.6866 23.7612 49.0811 23.572C49.182 23.1343 49.2717 22.6966 49.3614 22.2589C50.7408 15.2084 49.8324 9.54191 46.7709 7.67282C43.8216 5.88653 39.0107 7.74379 34.1438 12.2154C33.6615 12.6531 33.1905 13.1145 32.742 13.5758C32.4392 13.2683 32.1252 12.9607 31.8112 12.665C26.7087 7.88575 21.5951 5.8747 18.5336 7.75562C15.5955 9.55374 14.7208 14.8889 15.9543 21.5609C16.0777 22.2234 16.2123 22.874 16.3693 23.5365C15.6515 23.7494 14.9451 23.986 14.2834 24.2344C8.29504 26.4229 4 29.8772 4 33.4498C4 37.1407 8.57539 40.8434 14.7993 43.091C15.3039 43.2685 15.8085 43.4459 16.3244 43.5997C16.1562 44.3095 16.0104 45.0074 15.8758 45.729C14.6983 52.2945 15.6179 57.4996 18.556 59.2859C21.5839 61.1313 26.6751 59.2386 31.6318 54.6605C32.0243 54.2938 32.4168 53.9152 32.8093 53.513C33.3027 54.0217 33.8185 54.5067 34.3344 54.9799C39.1341 59.3332 43.8777 61.0959 46.8046 59.3096C49.8324 57.4641 50.8193 51.8687 49.5408 45.0547C49.4399 44.5342 49.3278 44.0019 49.2044 43.4577C49.5633 43.3513 49.9109 43.233 50.2586 43.1147C56.7291 40.8552 61.4167 37.1998 61.4167 33.4498C61.4167 29.8654 56.9983 26.3874 50.8978 24.1753ZM35.725 14.1318C39.8966 10.299 43.788 8.79664 45.5598 9.87314C47.455 11.0206 48.1839 15.6579 46.9952 21.7502C46.9167 22.1524 46.8382 22.5428 46.7373 22.9332C44.2477 22.3417 41.7245 21.9158 39.1901 21.6792C37.7323 19.4789 36.1399 17.3732 34.4129 15.3976C34.8503 14.9599 35.2764 14.5459 35.725 14.1318ZM22.7501 39.5894C23.3221 40.6186 23.9052 41.6478 24.522 42.6533C22.7726 42.4522 21.0344 42.1565 19.3186 41.7661C19.812 40.0626 20.4288 38.3 21.1465 36.5019C21.6624 37.5429 22.1894 38.5721 22.7501 39.5894ZM19.3522 25.3583C20.9671 24.9797 22.6828 24.6721 24.4659 24.4355C23.8716 25.4174 23.2884 26.4229 22.7389 27.4403C22.1894 28.4458 21.6511 29.475 21.1465 30.516C20.44 28.7534 19.8457 27.0262 19.3522 25.3583ZM22.4249 33.5089C23.1651 31.8764 23.9725 30.2794 24.8248 28.7061C25.677 27.1327 26.5966 25.6067 27.561 24.1043C29.2432 23.9742 30.9589 23.9032 32.7083 23.9032C34.4578 23.9032 36.1847 23.9742 37.8557 24.1043C38.8089 25.5949 39.7172 27.1209 40.5807 28.6824C41.4442 30.2439 42.2516 31.8409 43.0142 33.4616C42.2628 35.0941 41.4554 36.703 40.5919 38.2881C39.7396 39.8615 38.8313 41.3875 37.8781 42.9017C36.2072 43.0319 34.469 43.091 32.7083 43.091C30.9477 43.091 29.2432 43.0319 27.5947 42.9254C26.619 41.423 25.6995 39.8852 24.836 38.3118C23.9725 36.7385 23.1763 35.1414 22.4249 33.5089ZM42.6778 39.5658C43.2497 38.5247 43.788 37.4719 44.315 36.4072C45.0327 38.1225 45.6607 39.8615 46.2102 41.6478C44.472 42.0618 42.7114 42.3812 40.9396 42.5942C41.5451 41.6005 42.117 40.5831 42.6778 39.5658ZM44.2926 30.516C43.7655 29.475 43.2273 28.434 42.6665 27.4166C42.117 26.4111 41.5451 25.4174 40.9508 24.4355C42.7563 24.6721 44.4832 24.9915 46.0981 25.3819C45.5822 27.1327 44.9767 28.8362 44.2926 30.516ZM32.7308 17.2076C33.9083 18.5562 35.0185 19.9757 36.0502 21.4426C33.8298 21.3362 31.5981 21.3362 29.3777 21.4426C30.4767 19.9166 31.6093 18.497 32.7308 17.2076ZM19.7223 9.95595C21.6063 8.79664 25.7892 10.4528 30.1964 14.5695C30.4767 14.8298 30.7571 15.1137 31.0486 15.3976C29.3104 17.3732 27.7068 19.4789 26.2377 21.6792C23.7033 21.9158 21.1914 22.3298 18.7018 22.9095C18.556 22.3062 18.4327 21.691 18.3093 21.0759C17.2552 15.3503 17.9505 11.0325 19.7223 9.95595ZM16.9748 41.1391C16.5038 40.9972 16.044 40.8434 15.5843 40.6777C13.1956 39.8852 10.4818 38.6312 8.51932 36.9869C7.38669 36.1588 6.62412 34.8812 6.41105 33.4498C6.41105 31.2849 9.95474 28.5168 15.0684 26.6359C15.7076 26.3993 16.358 26.1863 17.0085 25.9852C17.771 28.5523 18.6906 31.072 19.7559 33.5089C18.6794 35.9813 17.7486 38.5366 16.9748 41.1391ZM30.0506 52.7322C28.2002 54.5185 26.0583 55.9381 23.7258 56.9081C22.481 57.5351 21.0456 57.5943 19.7672 57.0619C17.9841 55.9736 17.244 51.7977 18.2532 46.1786C18.3766 45.5161 18.5112 44.8536 18.6682 44.203C21.1801 44.7708 23.7146 45.1612 26.2826 45.3623C27.7629 47.5745 29.3889 49.692 31.1271 51.6794C30.7683 52.0461 30.4094 52.401 30.0506 52.7322ZM32.798 49.8576C31.6542 48.5563 30.5104 47.1131 29.4002 45.5634C30.4767 45.6107 31.5869 45.6344 32.7083 45.6344C33.8634 45.6344 34.996 45.6107 36.1175 45.5516C35.0857 47.054 33.9755 48.4854 32.798 49.8576ZM47.455 53.4065C47.3541 54.8498 46.6812 56.1984 45.6047 57.1092C43.8216 58.1976 40.02 56.778 35.9156 53.0635C35.4446 52.6376 34.9736 52.1762 34.4914 51.7031C36.2072 49.7038 37.7884 47.5863 39.2238 45.3623C41.7918 45.1376 44.3487 44.7235 46.8719 44.1202C46.984 44.6052 47.0849 45.0902 47.1746 45.5634C47.7241 48.1186 47.8139 50.7803 47.455 53.4065ZM49.496 40.6896C49.182 40.796 48.868 40.9025 48.5428 40.9972C47.7578 38.4183 46.7934 35.8985 45.6832 33.4498C46.7597 31.0365 47.6681 28.5523 48.4306 26.0089C49.0138 26.1863 49.5745 26.3756 50.1128 26.5649C55.3386 28.4576 59.0056 31.2731 59.0056 33.4261C59.0056 35.7448 55.0919 38.7377 49.496 40.6896ZM32.7083 38.9151C35.5455 38.9151 37.8444 36.49 37.8444 33.4971C37.8444 30.5042 35.5455 28.0791 32.7083 28.0791C29.8711 28.0791 27.5722 30.5042 27.5722 33.4971C27.5722 36.49 29.8711 38.9151 32.7083 38.9151Z" fill="#4AB2FF"/>
</svg>
