<svg width="70" height="68" viewBox="0 0 70 68" fill="none" xmlns="http://www.w3.org/2000/svg">
<rect width="70" height="68" rx="10" fill="white"/>
<path fill-rule="evenodd" clip-rule="evenodd" d="M36.9562 59.389L35.1386 58.9211C35.1386 58.9211 35.3606 51.9413 32.0348 51.4405C29.8185 49.5032 32.3904 -30.7168 40.3708 51.173C40.3708 51.173 37.6216 52.2081 37.1339 53.9785C36.6016 55.7153 36.9562 59.389 36.9562 59.389Z" fill="#4AB2FF"/>
<path fill-rule="evenodd" clip-rule="evenodd" d="M36.9562 59.389L35.1386 58.9211C35.1386 58.9211 35.3606 51.9413 32.0348 51.4405C29.8185 49.5032 32.3904 -30.7168 40.3708 51.173C40.3708 51.173 37.6216 52.2081 37.1339 53.9785C36.6016 55.7153 36.9562 59.389 36.9562 59.389Z" fill="#4AB2FF"/>
<path fill-rule="evenodd" clip-rule="evenodd" d="M37.932 52.643C37.932 52.643 53.8496 44.7611 50.1246 28.3627C46.5337 16.4405 38.0651 12.533 37.134 11.03C36.1145 9.96128 35.1387 8.09131 35.1387 8.09131L35.8041 41.2542C35.8041 41.2878 34.4295 51.4071 37.9325 52.6434" fill="#4AB2FF"/>
<path fill-rule="evenodd" clip-rule="evenodd" d="M37.932 52.643C37.932 52.643 53.8496 44.7611 50.1246 28.3627C46.5337 16.4405 38.0651 12.533 37.134 11.03C36.1145 9.96128 35.1387 8.09131 35.1387 8.09131L35.8041 41.2542C35.8041 41.2878 34.4295 51.4071 37.9325 52.6434" fill="#4AB2FF"/>
<path fill-rule="evenodd" clip-rule="evenodd" d="M34.208 53.077C34.208 53.077 19.2658 45.3955 20.1527 31.8701C20.995 18.3442 31.5472 11.6982 33.5868 10.4959C34.9172 9.42722 34.9614 9.02623 35.0502 7.95752C35.9814 9.46051 35.8041 30.434 35.9367 32.9051C36.3355 42.4232 35.2275 51.274 34.208 53.077Z" fill="#4AB2FF"/>
<path fill-rule="evenodd" clip-rule="evenodd" d="M34.208 53.077C34.208 53.077 19.2658 45.3955 20.1527 31.8701C20.995 18.3442 31.5472 11.6982 33.5868 10.4959C34.9172 9.42722 34.9614 9.02623 35.0502 7.95752C35.9814 9.46051 35.8041 30.434 35.9367 32.9051C36.3355 42.4232 35.2275 51.274 34.208 53.077Z" fill="#4AB2FF"/>
</svg>
