<svg width="78" height="68" viewBox="0 0 78 68" fill="none" xmlns="http://www.w3.org/2000/svg">
<rect width="78" height="68" rx="10" fill="white"/>
<path d="M69.6693 50.6379C67.4625 51.2047 66.0974 50.6627 64.873 48.805L56.1629 36.6309L54.9039 34.9452L44.7323 48.8455C43.5702 50.5179 42.3512 51.2451 40.1821 50.6535L53.2071 32.9896L41.0808 17.034C43.1662 16.6244 44.6072 16.8327 45.8867 18.7197L54.9207 31.0456L64.0211 18.7868C65.1869 17.1145 66.4405 16.4792 68.5336 17.0951L63.8319 23.393L57.4616 31.7728C56.703 32.7304 56.8072 33.3859 57.5052 34.3103L69.6693 50.6379ZM9.01547 32.6945L10.0807 27.4002C12.9814 16.9228 24.8689 12.569 33.067 19.0429C37.8579 22.8506 39.0487 28.2368 38.8116 34.2703H11.8061C11.4007 45.1307 19.1379 51.685 29.0018 48.3412C32.4618 47.1671 34.4998 44.4296 35.52 41.0054C36.0378 39.2893 36.8942 39.0209 38.4908 39.5113C37.6759 43.7943 35.8367 47.3722 31.9499 49.6113C26.1429 52.963 17.8533 51.879 13.4933 47.2209C10.8956 44.5179 9.82268 41.0936 9.34127 37.4312C9.26528 36.8258 9.11376 36.2493 9 35.6692C9.01001 34.6781 9.01547 33.6874 9.01547 32.6963V32.6945ZM11.8553 31.9668H36.2594C36.1001 24.1138 31.2601 18.5358 24.645 18.4885C17.3838 18.431 12.1697 23.8761 11.8548 31.9668H11.8553Z" fill="#4AB2FF"/>
</svg>
