<svg width="67" height="68" viewBox="0 0 67 68" fill="none" xmlns="http://www.w3.org/2000/svg">
<rect width="67" height="68" rx="10" fill="white"/>
<path d="M60.9388 31.529L36.9422 7.05679C36.2779 6.38011 35.3773 6 34.4382 6C33.4992 6 32.5986 6.38011 31.9343 7.05679L26.9447 12.1402L33.2669 18.586C36.5875 17.4425 39.7315 20.6842 38.5915 24.051L44.6854 30.2641C48.8859 28.7878 52.193 34.1427 49.0381 37.3568C45.7874 40.6711 40.4223 36.9978 42.1661 32.6851L36.4783 26.8936V42.1387C39.583 43.7076 39.2099 47.3747 37.5926 49.0199C36.8024 49.8251 35.7309 50.2774 34.6137 50.2774C33.4965 50.2774 32.425 49.8251 31.6348 49.0199C29.4788 46.8179 30.2764 43.1509 33.0154 42.0136V26.6246C30.4629 25.5599 29.9966 22.7786 30.728 20.9945L24.4954 14.6324L8.03703 31.4152C7.37302 32.0923 7 33.0106 7 33.9681C7 34.9256 7.37302 35.8439 8.03703 36.5211L32.041 60.9933C32.7051 61.6699 33.6055 62.05 34.5444 62.05C35.4832 62.05 36.3836 61.6699 37.0477 60.9933L60.9388 36.6349C61.6028 35.9578 61.9758 35.0395 61.9758 34.082C61.9758 33.1245 61.6028 32.2062 60.9388 31.529Z" fill="#4AB2FF"/>
</svg>
