<svg width="69" height="78" viewBox="0 0 69 78" fill="none" xmlns="http://www.w3.org/2000/svg">
<path d="M45.0194 47.5206C45.0194 53.9815 38.9018 53.8322 38.255 53.8322H25.7965V41.3872H38.255C44.81 41.3872 45.0194 46.247 45.0194 47.5206ZM37.2954 36.3797C37.3986 36.3797 43.2159 36.532 43.2159 30.8481C43.2159 28.4837 42.6753 25.3835 37.2954 25.3835H25.7965V36.3797H37.2954ZM69 16.2505V61.7495C68.9911 64.7637 67.7765 67.652 65.6217 69.7834C63.4669 71.9148 60.5469 73.1162 57.4995 73.125H11.5005C8.45314 73.1162 5.53313 71.9148 3.3783 69.7834C1.22347 67.652 0.00893903 64.7637 0 61.7495L0 16.2505C0.00893903 13.2363 1.22347 10.348 3.3783 8.21658C5.53313 6.08517 8.45314 4.88384 11.5005 4.875H57.4995C60.5469 4.88384 63.4669 6.08517 65.6217 8.21658C67.7765 10.348 68.9911 13.2363 69 16.2505ZM52.0657 48.424C52.0657 45.1379 51.0415 39.5439 44.5112 38.1636V38.0524C48.0397 36.5625 50.2622 33.7487 50.2622 29.576C50.2622 28.5096 50.5702 19.7072 38.3104 19.7072H18.7501V59.5192C38.4998 59.5192 40.2926 59.7751 43.9475 58.6493C46.136 57.9759 52.0657 55.9102 52.0657 48.424Z" fill="white"/>
</svg>
