<svg width="69" height="78" viewBox="0 0 69 78" fill="none" xmlns="http://www.w3.org/2000/svg">
<path d="M0 4.875V73.125H69V4.875H0ZM37.5496 58.1039C37.5496 64.7461 33.6067 67.7777 27.8618 67.7777C22.6714 67.7777 19.6681 65.127 18.1279 61.9125L23.4107 58.759C24.4272 60.5414 25.3513 62.0496 27.5846 62.0496C29.71 62.0496 31.0654 61.227 31.0654 58.0125V36.2121H37.5496V58.1039ZM52.8897 67.7777C46.8676 67.7777 42.971 64.9441 41.0766 61.227L46.3594 58.2105C47.7455 60.45 49.5629 62.1105 52.7511 62.1105C55.431 62.1105 57.156 60.7852 57.156 58.9418C57.156 56.748 55.4002 55.9711 52.4277 54.6762L50.8105 53.9906C46.1283 52.0254 43.0326 49.5422 43.0326 44.3168C43.0326 39.5027 46.7444 35.8465 52.5201 35.8465C56.6478 35.8465 59.6049 37.2633 61.7304 40.9805L56.6786 44.1797C55.5696 42.2145 54.3683 41.4375 52.5047 41.4375C50.6103 41.4375 49.4089 42.6258 49.4089 44.1797C49.4089 46.0992 50.6103 46.8762 53.398 48.0797L55.0152 48.7652C60.529 51.0961 63.6248 53.4879 63.6248 58.8504C63.6248 64.609 59.035 67.7777 52.8897 67.7777Z" fill="white"/>
</svg>
