<svg width="65" height="68" viewBox="0 0 65 68" fill="none" xmlns="http://www.w3.org/2000/svg">
<rect width="65" height="68" rx="10" fill="white"/>
<path d="M23.3962 50.2859C23.3962 50.5134 23.1411 50.6953 22.8196 50.6953C22.4536 50.7295 22.1986 50.5475 22.1986 50.2859C22.1986 50.0585 22.4536 49.8765 22.7752 49.8765C23.1079 49.8424 23.3962 50.0243 23.3962 50.2859ZM19.9476 49.7741C19.87 50.0016 20.0917 50.2632 20.4244 50.3314C20.7127 50.4451 21.0454 50.3314 21.1119 50.104C21.1784 49.8765 20.9677 49.6149 20.6351 49.5126C20.3468 49.433 20.0252 49.5467 19.9476 49.7741ZM24.8488 49.5808C24.5272 49.6604 24.3054 49.8765 24.3387 50.1381C24.372 50.3655 24.6603 50.5134 24.9929 50.4338C25.3145 50.3542 25.5363 50.1381 25.503 49.9106C25.4698 49.6945 25.1704 49.5467 24.8488 49.5808ZM32.1452 6C16.7651 6 5 17.9756 5 33.7498C5 46.3623 12.7399 57.1551 23.7954 60.9537C25.2147 61.2152 25.7137 60.3168 25.7137 59.5775C25.7137 58.8724 25.6804 54.9829 25.6804 52.5946C25.6804 52.5946 17.9183 54.3005 16.2883 49.2055C16.2883 49.2055 15.0242 45.896 13.2056 45.043C13.2056 45.043 10.6663 43.2575 13.3831 43.2916C13.3831 43.2916 16.1442 43.5191 17.6633 46.2258C20.0917 50.6157 24.1613 49.3533 25.747 48.6027C26.002 46.7831 26.7228 45.5207 27.5212 44.7701C21.3226 44.065 15.0685 43.1438 15.0685 32.2031C15.0685 29.0755 15.9113 27.5061 17.6855 25.5045C17.3972 24.7652 16.4546 21.7173 17.9738 17.7823C20.2913 17.043 25.625 20.853 25.625 20.853C27.8427 20.2161 30.2268 19.8863 32.5887 19.8863C34.9506 19.8863 37.3347 20.2161 39.5524 20.853C39.5524 20.853 44.8861 17.0317 47.2036 17.7823C48.7228 21.7287 47.7802 24.7652 47.4919 25.5045C49.2661 27.5175 50.3528 29.0869 50.3528 32.2031C50.3528 43.1779 43.8216 44.0536 37.623 44.7701C38.6431 45.6685 39.5081 47.3745 39.5081 50.0471C39.5081 53.8797 39.4748 58.6222 39.4748 59.5548C39.4748 60.294 39.9849 61.1925 41.3931 60.9309C52.4819 57.1551 60 46.3623 60 33.7498C60 17.9756 47.5252 6 32.1452 6ZM15.7782 45.225C15.6341 45.3387 15.6673 45.6003 15.8558 45.8164C16.0333 45.9984 16.2883 46.078 16.4325 45.9301C16.5766 45.8164 16.5433 45.5548 16.3548 45.3387C16.1774 45.1568 15.9224 45.0771 15.7782 45.225ZM14.5806 44.3038C14.503 44.4516 14.6139 44.6336 14.8357 44.7473C15.0131 44.8611 15.2349 44.8269 15.3125 44.6677C15.3901 44.5199 15.2792 44.3379 15.0575 44.2242C14.8357 44.1559 14.6583 44.1901 14.5806 44.3038ZM18.1734 48.3525C17.996 48.5004 18.0625 48.8416 18.3175 49.0577C18.5726 49.3192 18.8942 49.3533 19.0383 49.1714C19.1825 49.0235 19.1159 48.6823 18.8942 48.4663C18.6502 48.2047 18.3175 48.1706 18.1734 48.3525ZM16.9093 46.6807C16.7319 46.7945 16.7319 47.0901 16.9093 47.3517C17.0867 47.6133 17.3861 47.727 17.5302 47.6133C17.7077 47.4655 17.7077 47.1698 17.5302 46.9082C17.375 46.6466 17.0867 46.5329 16.9093 46.6807Z" fill="#4AB2FF"/>
</svg>
