<svg width="69" height="68" viewBox="0 0 69 68" fill="none" xmlns="http://www.w3.org/2000/svg">
<rect width="69" height="68" rx="10" fill="white"/>
<path d="M35.2264 62C34.4394 62 33.6408 61.7964 32.9478 61.4118L25.7012 57.2835C24.6207 56.6953 25.1492 56.4917 25.5016 56.3786C26.9462 55.8923 27.2398 55.7905 28.7784 54.9422C28.9428 54.8517 29.1542 54.8856 29.3187 54.9874L34.8857 58.1657C35.0854 58.2788 35.3673 58.2788 35.5552 58.1657L57.248 46.1085C57.4477 45.9954 57.5769 45.7692 57.5769 45.543V21.4287C57.5769 21.1912 57.4477 20.9763 57.2363 20.8519L35.5552 8.80603C35.3555 8.69293 35.0854 8.69293 34.8857 8.80603L13.2164 20.8632C13.005 20.9763 12.8758 21.2025 12.8758 21.44V45.543C12.8758 45.7692 13.005 45.9954 13.2164 46.0972L19.1593 49.3999C22.3892 50.9495 24.3623 49.1285 24.3623 47.2848V23.4872C24.3623 23.1479 24.6442 22.8878 24.9965 22.8878H27.7449C28.0855 22.8878 28.3791 23.1479 28.3791 23.4872V47.2962C28.3791 51.4359 26.0301 53.8111 21.9546 53.8111C20.6979 53.8111 19.7113 53.8111 16.963 52.4991L11.2785 49.3434C9.86912 48.563 9 47.1039 9 45.5317V21.4287C9 19.8678 9.86912 18.3975 11.2785 17.617L32.9478 5.55988C34.322 4.81337 36.1425 4.81337 37.5049 5.55988L59.1977 17.6283C60.6071 18.4088 61.4762 19.8678 61.4762 21.44V45.543C61.4762 47.1039 60.6071 48.563 59.1977 49.3547L37.5049 61.4118C36.8119 61.7964 36.025 62 35.2264 62ZM52.738 38.2363C52.738 33.7234 49.5669 32.5245 42.9075 31.6762C36.1659 30.8165 35.4847 30.3754 35.4847 28.8598C35.4847 27.6043 36.0602 25.9303 41.0518 25.9303C45.5031 25.9303 47.1474 26.8578 47.8286 29.7533C47.8873 30.0248 48.1457 30.2284 48.4394 30.2284H51.2581C51.4343 30.2284 51.5987 30.1605 51.7162 30.0361C51.8336 29.9117 51.8924 29.742 51.8806 29.5724C51.446 24.5844 48.0048 22.2657 41.0518 22.2657C34.8623 22.2657 31.1744 24.7767 31.1744 28.9955C31.1744 33.565 34.8505 34.8318 40.7817 35.3974C47.8873 36.0647 48.4394 37.0713 48.4394 38.4173C48.4394 40.7473 46.4897 41.7426 41.9209 41.7426C36.1777 41.7426 34.921 40.3514 34.4982 37.6029C34.4512 37.3089 34.1928 37.094 33.8757 37.094H31.0687C30.7163 37.094 30.4462 37.3654 30.4462 37.6934C30.4462 41.211 32.4311 45.4073 41.9327 45.4073C48.7917 45.396 52.738 42.7832 52.738 38.2363Z" fill="#4AB2FF"/>
</svg>
