<svg width="23" height="24" viewBox="0 0 23 24" fill="none" xmlns="http://www.w3.org/2000/svg">
<g clip-path="url(#clip0)">
<path d="M8.01877 18.4817C8.01877 18.5747 7.91756 18.6491 7.78996 18.6491C7.64475 18.663 7.54354 18.5886 7.54354 18.4817C7.54354 18.3887 7.64475 18.3143 7.77235 18.3143C7.90436 18.3003 8.01877 18.3747 8.01877 18.4817ZM6.65029 18.2724C6.61949 18.3654 6.70749 18.4724 6.8395 18.5003C6.95391 18.5468 7.08592 18.5003 7.11232 18.4073C7.13872 18.3143 7.05511 18.2073 6.92311 18.1655C6.8087 18.1329 6.68109 18.1794 6.65029 18.2724ZM8.5952 18.1934C8.46759 18.2259 8.37959 18.3143 8.39279 18.4212C8.40599 18.5142 8.5204 18.5747 8.65241 18.5421C8.78001 18.5096 8.86802 18.4212 8.85482 18.3282C8.84162 18.2399 8.72281 18.1794 8.5952 18.1934ZM11.4906 0.373535C5.38742 0.373535 0.71875 5.27027 0.71875 11.7202C0.71875 16.8773 3.79013 21.2904 8.17718 22.8436C8.74041 22.9506 8.93842 22.5832 8.93842 22.2809C8.93842 21.9926 8.92522 20.4022 8.92522 19.4257C8.92522 19.4257 5.84504 20.1232 5.19821 18.0399C5.19821 18.0399 4.69658 16.6867 3.97494 16.3379C3.97494 16.3379 2.96728 15.6078 4.04534 15.6218C4.04534 15.6218 5.141 15.7148 5.74384 16.8215C6.70749 18.6165 8.32239 18.1004 8.95162 17.7934C9.05283 17.0494 9.33885 16.5332 9.65566 16.2263C7.19592 15.938 4.71418 15.5613 4.71418 11.0878C4.71418 9.80893 5.0486 9.16719 5.75264 8.34874C5.63823 8.04648 5.26421 6.8002 5.86705 5.19121C6.7867 4.88894 8.90322 6.44678 8.90322 6.44678C9.78327 6.18637 10.7293 6.05151 11.6666 6.05151C12.6038 6.05151 13.5499 6.18637 14.4299 6.44678C14.4299 6.44678 16.5465 4.88429 17.4661 5.19121C18.0689 6.80485 17.6949 8.04648 17.5805 8.34874C18.2846 9.17184 18.7158 9.81358 18.7158 11.0878C18.7158 15.5753 16.124 15.9333 13.6643 16.2263C14.0691 16.5937 14.4123 17.2912 14.4123 18.384C14.4123 19.9512 14.3991 21.8903 14.3991 22.2716C14.3991 22.5739 14.6015 22.9413 15.1604 22.8343C19.5606 21.2904 22.544 16.8773 22.544 11.7202C22.544 5.27027 17.5937 0.373535 11.4906 0.373535ZM4.9958 16.4123C4.93859 16.4588 4.95179 16.5658 5.0266 16.6541C5.097 16.7285 5.19821 16.7611 5.25541 16.7006C5.31261 16.6541 5.29941 16.5472 5.22461 16.4588C5.1542 16.3844 5.053 16.3519 4.9958 16.4123ZM4.52057 16.0356C4.48977 16.0961 4.53377 16.1705 4.62177 16.217C4.69218 16.2635 4.78018 16.2495 4.81098 16.1844C4.84179 16.124 4.79778 16.0496 4.70978 16.0031C4.62177 15.9752 4.55137 15.9891 4.52057 16.0356ZM5.94625 17.6911C5.87585 17.7516 5.90225 17.8911 6.00345 17.9794C6.10466 18.0864 6.23227 18.1004 6.28947 18.0259C6.34667 17.9655 6.32027 17.826 6.23227 17.7376C6.13546 17.6307 6.00345 17.6167 5.94625 17.6911ZM5.44462 17.0075C5.37422 17.054 5.37422 17.175 5.44462 17.2819C5.51503 17.3889 5.63383 17.4354 5.69104 17.3889C5.76144 17.3284 5.76144 17.2075 5.69104 17.1005C5.62943 16.9936 5.51503 16.9471 5.44462 17.0075Z" fill="white"/>
</g>
<defs>
<clipPath id="clip0">
<rect width="21.8253" height="23.8094" fill="white" transform="translate(0.71875)"/>
</clipPath>
</defs>
</svg>
