<svg width="23" height="24" viewBox="0 0 23 24" fill="none" xmlns="http://www.w3.org/2000/svg">
<g clip-path="url(#clip0)">
<path d="M11.3528 6.55691C8.25439 6.55691 5.7552 8.9425 5.7552 11.9001C5.7552 14.8576 8.25439 17.2432 11.3528 17.2432C14.4512 17.2432 16.9504 14.8576 16.9504 11.9001C16.9504 8.9425 14.4512 6.55691 11.3528 6.55691ZM11.3528 15.3738C9.35052 15.3738 7.71362 13.816 7.71362 11.9001C7.71362 9.98416 9.34565 8.42632 11.3528 8.42632C13.3599 8.42632 14.992 9.98416 14.992 11.9001C14.992 13.816 13.3551 15.3738 11.3528 15.3738V15.3738ZM18.485 6.33835C18.485 7.03124 17.9004 7.58462 17.1794 7.58462C16.4535 7.58462 15.8737 7.02659 15.8737 6.33835C15.8737 5.65011 16.4583 5.09208 17.1794 5.09208C17.9004 5.09208 18.485 5.65011 18.485 6.33835ZM22.1923 7.60322C22.1095 5.93377 21.71 4.45499 20.4288 3.23662C19.1524 2.01825 17.6032 1.63693 15.8542 1.55322C14.0517 1.45557 8.64899 1.45557 6.84646 1.55322C5.10239 1.63228 3.55319 2.0136 2.27193 3.23197C0.990669 4.45034 0.596061 5.92912 0.50837 7.59857C0.406064 9.31917 0.406064 14.4763 0.50837 16.1969C0.591189 17.8664 0.990669 19.3451 2.27193 20.5635C3.55319 21.7819 5.09752 22.1632 6.84646 22.2469C8.64899 22.3446 14.0517 22.3446 15.8542 22.2469C17.6032 22.1679 19.1524 21.7865 20.4288 20.5635C21.7052 19.3451 22.1046 17.8664 22.1923 16.1969C22.2946 14.4763 22.2946 9.32382 22.1923 7.60322V7.60322ZM19.8637 18.0431C19.4837 18.9545 18.748 19.6567 17.7883 20.0241C16.3512 20.5682 12.941 20.4426 11.3528 20.4426C9.76461 20.4426 6.34955 20.5635 4.91727 20.0241C3.96241 19.6614 3.22678 18.9592 2.84192 18.0431C2.27193 16.6712 2.40346 13.4161 2.40346 11.9001C2.40346 10.3841 2.2768 7.12424 2.84192 5.75706C3.22191 4.84561 3.95754 4.14342 4.91727 3.77605C6.35442 3.23197 9.76461 3.35753 11.3528 3.35753C12.941 3.35753 16.356 3.23662 17.7883 3.77605C18.7432 4.13877 19.4788 4.84096 19.8637 5.75706C20.4337 7.12889 20.3021 10.3841 20.3021 11.9001C20.3021 13.4161 20.4337 16.6759 19.8637 18.0431Z" fill="white"/>
</g>
<defs>
<clipPath id="clip0">
<rect width="21.8253" height="23.8094" fill="white" transform="translate(0.433594)"/>
</clipPath>
</defs>
</svg>
