<svg width="22" height="24" viewBox="0 0 22 24" fill="none" xmlns="http://www.w3.org/2000/svg">
<g clip-path="url(#clip0)">
<path d="M20.2707 1.48828H1.55441C0.696806 1.48828 0 2.16259 0 2.99036V20.82C0 21.6477 0.696806 22.322 1.55441 22.322H20.2707C21.1283 22.322 21.83 21.6477 21.83 20.82V2.99036C21.83 2.16259 21.1283 1.48828 20.2707 1.48828ZM6.59773 19.3458H3.36221V9.40325H6.6026V19.3458H6.59773ZM4.97997 8.04533C3.94207 8.04533 3.10395 7.24081 3.10395 6.25493C3.10395 5.26905 3.94207 4.46453 4.97997 4.46453C6.013 4.46453 6.85598 5.26905 6.85598 6.25493C6.85598 7.24546 6.01787 8.04533 4.97997 8.04533V8.04533ZM18.726 19.3458H15.4905V14.5094C15.4905 13.3561 15.4662 11.8726 13.8094 11.8726C12.1234 11.8726 11.8652 13.1282 11.8652 14.4257V19.3458H8.62967V9.40325H11.7336V10.7612H11.7775C12.2112 9.97989 13.2685 9.15677 14.8425 9.15677C18.117 9.15677 18.726 11.2169 18.726 13.8955V19.3458V19.3458Z" fill="white"/>
</g>
<defs>
<clipPath id="clip0">
<rect width="21.83" height="23.81" fill="white"/>
</clipPath>
</defs>
</svg>
