<svg width="22" height="24" viewBox="0 0 22 24" fill="none" xmlns="http://www.w3.org/2000/svg">
<g clip-path="url(#clip0)">
<path d="M19.5818 7.0551C19.5956 7.26659 19.5956 7.47813 19.5956 7.68963C19.5956 14.1405 15.0949 21.5734 6.86886 21.5734C4.33457 21.5734 1.98034 20.7726 0 19.3828C0.360074 19.4281 0.706252 19.4432 1.08018 19.4432C3.17127 19.4432 5.09624 18.6728 6.63343 17.3584C4.66694 17.3131 3.01896 15.9081 2.45116 13.9743C2.72816 14.0196 3.00511 14.0498 3.29595 14.0498C3.69755 14.0498 4.09918 13.9894 4.47307 13.8837C2.4235 13.4304 0.886267 11.4665 0.886267 9.09461V9.0342C1.48173 9.39679 2.17421 9.62339 2.90813 9.65357C1.70331 8.77732 0.913975 7.28171 0.913975 5.58966C0.913975 4.68323 1.13551 3.85232 1.52329 3.12716C3.72521 6.08821 7.03502 8.02193 10.7464 8.23347C10.6772 7.87089 10.6356 7.49325 10.6356 7.11555C10.6356 4.42639 12.6298 2.23584 15.1087 2.23584C16.3966 2.23584 17.5598 2.82503 18.3769 3.7768C19.3878 3.5653 20.3572 3.15738 21.2159 2.59842C20.8834 3.73151 20.1772 4.68328 19.2494 5.28753C20.1495 5.18183 21.022 4.90984 21.8252 4.53219C21.2159 5.49902 20.4542 6.36012 19.5818 7.0551V7.0551Z" fill="white"/>
</g>
<defs>
<clipPath id="clip0">
<rect width="21.8253" height="23.8094" fill="white"/>
</clipPath>
</defs>
</svg>
