<svg width="50" height="50" viewBox="0 0 50 50" fill="none" xmlns="http://www.w3.org/2000/svg">
<path d="M18.7498 39.5834C8.33317 42.7084 8.33317 34.3751 4.1665 33.3334M33.3332 45.8334V37.7709C33.4113 36.7775 33.2771 35.7788 32.9395 34.8413C32.6018 33.9038 32.0684 33.0489 31.3748 32.3334C37.9165 31.6042 44.7915 29.1251 44.7915 17.7501C44.791 14.8414 43.6721 12.0442 41.6665 9.93757C42.6162 7.39279 42.5491 4.57997 41.479 2.08341C41.479 2.08341 39.0207 1.35424 33.3332 5.16674C28.5582 3.87262 23.5248 3.87262 18.7498 5.16674C13.0623 1.35424 10.604 2.08341 10.604 2.08341C9.53395 4.57997 9.4668 7.39279 10.4165 9.93757C8.39594 12.0599 7.27593 14.8823 7.2915 17.8126C7.2915 29.1042 14.1665 31.5834 20.7082 32.3959C20.0227 33.1042 19.4941 33.9488 19.1567 34.8749C18.8193 35.801 18.6807 36.7877 18.7498 37.7709V45.8334" stroke="white" stroke-width="2" stroke-linecap="round" stroke-linejoin="round"/>
</svg>
