<svg width="16" height="15" viewBox="0 0 16 15" fill="none" xmlns="http://www.w3.org/2000/svg">
<g clip-path="url(#clip0)">
<path d="M7.89339 0.779785C4.05903 0.779785 0.950684 3.88813 0.950684 7.72249C0.950684 11.5569 4.05903 14.6652 7.89339 14.6652C11.7278 14.6652 14.8361 11.5569 14.8361 7.72249C14.8361 3.88813 11.7278 0.779785 7.89339 0.779785ZM11.1725 10.4871C11.128 10.5393 10.059 11.7673 8.09728 11.7673C5.72634 11.7673 4.05248 9.99634 4.05248 7.69217C4.05248 5.41611 5.78827 3.67769 8.07707 3.67769C9.95151 3.67769 10.9316 4.72232 10.9723 4.7668C11.0226 4.82158 11.0533 4.89149 11.0595 4.96557C11.0658 5.03965 11.0473 5.11372 11.007 5.17617L10.3805 6.14633C10.2671 6.32177 10.0229 6.35212 9.87002 6.21058C9.8635 6.20459 9.12735 5.54206 8.1377 5.54206C6.84669 5.54206 6.06844 6.48199 6.06844 7.67196C6.06844 8.78061 6.7827 9.90292 8.14781 9.90292C9.23112 9.90292 9.97531 9.10961 9.9827 9.10157C10.1264 8.94578 10.3763 8.96067 10.5008 9.13105L11.188 10.0709C11.2326 10.1319 11.2553 10.2062 11.2525 10.2817C11.2497 10.3572 11.2215 10.4295 11.1725 10.4871Z" fill="white"/>
</g>
<defs>
<clipPath id="clip0">
<rect width="14.3333" height="14.3333" fill="white" transform="translate(0.726562 0.555664)"/>
</clipPath>
</defs>
</svg>
